<?xml version="1.0" encoding="utf-8"?>
<!-- Generator: Adobe Illustrator 17.0.0, SVG Export Plug-In . SVG Version: 6.00 Build 0)  -->
<!DOCTYPE svg PUBLIC "-//W3C//DTD SVG 1.1//EN" "http://www.w3.org/Graphics/SVG/1.1/DTD/svg11.dtd">
<svg version="1.1" id="Слой_1" xmlns="http://www.w3.org/2000/svg" xmlns:xlink="http://www.w3.org/1999/xlink" x="0px" y="0px"
	 width="512px" height="512px" viewBox="0 0 512 512" enable-background="new 0 0 512 512" xml:space="preserve">
<title>015 - Car Insurance</title>
<desc>Created with Sketch.</desc>
<g id="Page-1">
	<g id="_x30_15---Car-Insurance">
		<path id="Shape" stroke="#000000" stroke-width="6.8072" stroke-miterlimit="10" d="M114.325,366.199L73.71,325.576
			c-9.529-9.5-17.142-20.744-22.423-33.119l-19.889-46.385c-1.658-3.89-5.48-6.414-9.709-6.41c-3.594,0.001-6.94,1.828-8.885,4.85
			s-2.222,6.825-0.735,10.096l34.844,76.65c3.825,8.432,9.141,16.103,15.693,22.646l61.686,61.686h73.52v-16.546
			c0.268-17.016-5.224-33.623-15.586-47.123c-5.439-7.247-12.869-12.755-21.383-15.853c-20.895-8.503-40.105-20.667-56.725-35.92
			c-8.315-6.851-20.26-7.05-28.798-0.48c3.207,4.795,6.879,9.262,10.963,13.337l40.614,40.623c2.311,2.232,3.238,5.538,2.425,8.647
			c-0.814,3.109-3.241,5.536-6.35,6.35S116.557,368.511,114.325,366.199z"/>
		<path id="Shape_1_" stroke="#000000" stroke-width="6.8072" stroke-miterlimit="10" d="M206.703,433.371h-88.911V504.5h97.802
			v-71.129H206.703z M188.921,477.827h-8.891c-4.91,0-8.891-3.981-8.891-8.891s3.981-8.891,8.891-8.891h8.891
			c4.91,0,8.891,3.981,8.891,8.891C197.812,473.846,193.831,477.827,188.921,477.827z"/>
		<path id="Shape_2_" stroke="#000000" stroke-width="6.8072" stroke-miterlimit="10" d="M498.419,239.662
			c-4.229-0.006-8.054,2.513-9.718,6.402l-19.889,46.394c-5.284,12.372-12.893,23.615-22.414,33.119L405.775,366.2
			c-3.489,3.369-9.034,3.321-12.464-0.108c-3.43-3.43-3.478-8.975-0.108-12.464l40.623-40.623
			c4.079-4.074,7.745-8.541,10.945-13.337c-8.533-6.571-20.472-6.379-28.789,0.462c-16.62,15.26-35.833,27.428-56.734,35.929
			c-8.498,3.107-15.91,8.614-21.339,15.853c-10.376,13.498-15.882,30.108-15.622,47.132v16.546h73.52l61.686-61.686
			c6.55-6.544,11.866-14.215,15.693-22.646l34.853-76.659c1.483-3.271,1.204-7.07-0.74-10.09
			C505.354,241.49,502.01,239.664,498.419,239.662z"/>
		<path id="Shape_3_" stroke="#000000" stroke-width="6.8072" stroke-miterlimit="10" d="M399.488,433.371h-94.983V504.5h97.802
			v-71.129H399.488z M340.069,477.827h-8.891c-4.91,0-8.891-3.981-8.891-8.891s3.981-8.891,8.891-8.891h8.891
			c4.91,0,8.891,3.981,8.891,8.891S344.979,477.827,340.069,477.827z"/>
	</g>
</g>
<g>
	<path d="M164.784,179.954v50.319c0,14.49,11.747,26.237,26.237,26.237H332.98c14.49,0,26.237-11.747,26.237-26.237v-50.319
		c0-2.52-2.043-4.563-4.563-4.563H169.347C166.827,175.391,164.784,177.434,164.784,179.954z M213.329,211.895h-12.168
		c-4.41,0-7.985-3.575-7.985-7.985c0-4.41,3.575-7.985,7.985-7.985h12.168c4.41,0,7.985,3.575,7.985,7.985
		C221.314,208.319,217.739,211.895,213.329,211.895z"/>
	<path d="M359.216,154.858v-1.648c0-14.49-11.747-26.237-26.237-26.237H191.021c-14.49,0-26.237,11.747-26.237,26.237v1.648
		c0,2.52,2.043,4.563,4.563,4.563h185.306C357.173,159.421,359.216,157.378,359.216,154.858L359.216,154.858z"/>
</g>
</svg>
