<svg id="Capa_1" enable-background="new 0 0 512 512" height="512" viewBox="0 0 512 512" width="512" xmlns="http://www.w3.org/2000/svg"><path d="m152.51 226h31.07c4.52-12.77 14.65-22.9 27.42-27.42v-31.07c-29.35 5.97-52.52 29.14-58.49 58.49zm73.49 0c-8.27 0-15 6.73-15 15s6.73 15 15 15 15-6.73 15-15-6.73-15-15-15zm42.42 30c-4.52 12.77-14.65 22.9-27.42 27.42v31.07c29.35-5.97 52.52-29.14 58.49-58.49zm-27.42-88.49v31.07c12.77 4.52 22.9 14.65 27.42 27.42h31.07c-5.97-29.35-29.14-52.52-58.49-58.49zm-57.42 88.49h-31.07c5.97 29.35 29.14 52.52 58.49 58.49v-31.07c-12.77-4.52-22.9-14.65-27.42-27.42zm84.84 0c-4.52 12.77-14.65 22.9-27.42 27.42v31.07c29.35-5.97 52.52-29.14 58.49-58.49zm-27.42-88.49v31.07c12.77 4.52 22.9 14.65 27.42 27.42h31.07c-5.97-29.35-29.14-52.52-58.49-58.49zm-15 58.49c-8.27 0-15 6.73-15 15s6.73 15 15 15 15-6.73 15-15-6.73-15-15-15zm-42.42 30h-31.07c5.97 29.35 29.14 52.52 58.49 58.49v-31.07c-12.77-4.52-22.9-14.65-27.42-27.42zm-31.07-30h31.07c4.52-12.77 14.65-22.9 27.42-27.42v-31.07c-29.35 5.97-52.52 29.14-58.49 58.49zm0 0h31.07c4.52-12.77 14.65-22.9 27.42-27.42v-31.07c-29.35 5.97-52.52 29.14-58.49 58.49zm31.07 30h-31.07c5.97 29.35 29.14 52.52 58.49 58.49v-31.07c-12.77-4.52-22.9-14.65-27.42-27.42zm42.42-30c-8.27 0-15 6.73-15 15s6.73 15 15 15 15-6.73 15-15-6.73-15-15-15zm42.42 30c-4.52 12.77-14.65 22.9-27.42 27.42v31.07c29.35-5.97 52.52-29.14 58.49-58.49zm-27.42-88.49v31.07c12.77 4.52 22.9 14.65 27.42 27.42h31.07c-5.97-29.35-29.14-52.52-58.49-58.49zm0 0v31.07c12.77 4.52 22.9 14.65 27.42 27.42h31.07c-5.97-29.35-29.14-52.52-58.49-58.49zm27.42 88.49c-4.52 12.77-14.65 22.9-27.42 27.42v31.07c29.35-5.97 52.52-29.14 58.49-58.49zm-42.42-30c-8.27 0-15 6.73-15 15s6.73 15 15 15 15-6.73 15-15-6.73-15-15-15zm-42.42 30h-31.07c5.97 29.35 29.14 52.52 58.49 58.49v-31.07c-12.77-4.52-22.9-14.65-27.42-27.42zm-31.07-30h31.07c4.52-12.77 14.65-22.9 27.42-27.42v-31.07c-29.35 5.97-52.52 29.14-58.49 58.49zm0 0h31.07c4.52-12.77 14.65-22.9 27.42-27.42v-31.07c-29.35 5.97-52.52 29.14-58.49 58.49zm31.07 30h-31.07c5.97 29.35 29.14 52.52 58.49 58.49v-31.07c-12.77-4.52-22.9-14.65-27.42-27.42zm42.42-30c-8.27 0-15 6.73-15 15s6.73 15 15 15 15-6.73 15-15-6.73-15-15-15zm42.42 30c-4.52 12.77-14.65 22.9-27.42 27.42v31.07c29.35-5.97 52.52-29.14 58.49-58.49zm-27.42-88.49v31.07c12.77 4.52 22.9 14.65 27.42 27.42h31.07c-5.97-29.35-29.14-52.52-58.49-58.49zm27.42 58.49h31.07c-5.97-29.35-29.14-52.52-58.49-58.49v31.07c12.77 4.52 22.9 14.65 27.42 27.42zm-27.42 57.42v31.07c29.35-5.97 52.52-29.14 58.49-58.49h-31.07c-4.52 12.77-14.65 22.9-27.42 27.42zm-15-57.42c-8.27 0-15 6.73-15 15s6.73 15 15 15 15-6.73 15-15-6.73-15-15-15zm-42.42 30h-31.07c5.97 29.35 29.14 52.52 58.49 58.49v-31.07c-12.77-4.52-22.9-14.65-27.42-27.42zm27.42-57.42v-31.07c-29.35 5.97-52.52 29.14-58.49 58.49h31.07c4.52-12.77 14.65-22.9 27.42-27.42zm-211-182.58v450h60v30h90v-30h212v30h90v-30h60v-450zm452 390h-392v-330h392zm-30-300h-332v270h332zm-196 240c-57.9 0-105-47.1-105-105s47.1-105 105-105 105 47.1 105 105-47.1 105-105 105zm165-90h-30v-30h30zm0-60h-30v-30h30zm-150-28.49v31.07c12.77 4.52 22.9 14.65 27.42 27.42h31.07c-5.97-29.35-29.14-52.52-58.49-58.49zm0 115.91v31.07c29.35-5.97 52.52-29.14 58.49-58.49h-31.07c-4.52 12.77-14.65 22.9-27.42 27.42zm-15-57.42c-8.27 0-15 6.73-15 15s6.73 15 15 15 15-6.73 15-15-6.73-15-15-15zm-42.42 30h-31.07c5.97 29.35 29.14 52.52 58.49 58.49v-31.07c-12.77-4.52-22.9-14.65-27.42-27.42zm27.42-57.42v-31.07c-29.35 5.97-52.52 29.14-58.49 58.49h31.07c4.52-12.77 14.65-22.9 27.42-27.42zm-58.49 27.42h31.07c4.52-12.77 14.65-22.9 27.42-27.42v-31.07c-29.35 5.97-52.52 29.14-58.49 58.49zm31.07 30h-31.07c5.97 29.35 29.14 52.52 58.49 58.49v-31.07c-12.77-4.52-22.9-14.65-27.42-27.42zm42.42-30c-8.27 0-15 6.73-15 15s6.73 15 15 15 15-6.73 15-15-6.73-15-15-15zm42.42 30c-4.52 12.77-14.65 22.9-27.42 27.42v31.07c29.35-5.97 52.52-29.14 58.49-58.49zm-27.42-88.49v31.07c12.77 4.52 22.9 14.65 27.42 27.42h31.07c-5.97-29.35-29.14-52.52-58.49-58.49zm0 0v31.07c12.77 4.52 22.9 14.65 27.42 27.42h31.07c-5.97-29.35-29.14-52.52-58.49-58.49zm27.42 88.49c-4.52 12.77-14.65 22.9-27.42 27.42v31.07c29.35-5.97 52.52-29.14 58.49-58.49zm-42.42-30c-8.27 0-15 6.73-15 15s6.73 15 15 15 15-6.73 15-15-6.73-15-15-15zm-42.42 30h-31.07c5.97 29.35 29.14 52.52 58.49 58.49v-31.07c-12.77-4.52-22.9-14.65-27.42-27.42zm-31.07-30h31.07c4.52-12.77 14.65-22.9 27.42-27.42v-31.07c-29.35 5.97-52.52 29.14-58.49 58.49zm0 0h31.07c4.52-12.77 14.65-22.9 27.42-27.42v-31.07c-29.35 5.97-52.52 29.14-58.49 58.49zm31.07 30h-31.07c5.97 29.35 29.14 52.52 58.49 58.49v-31.07c-12.77-4.52-22.9-14.65-27.42-27.42zm42.42-30c-8.27 0-15 6.73-15 15s6.73 15 15 15 15-6.73 15-15-6.73-15-15-15zm42.42 30c-4.52 12.77-14.65 22.9-27.42 27.42v31.07c29.35-5.97 52.52-29.14 58.49-58.49zm-27.42-88.49v31.07c12.77 4.52 22.9 14.65 27.42 27.42h31.07c-5.97-29.35-29.14-52.52-58.49-58.49zm27.42 88.49c-4.52 12.77-14.65 22.9-27.42 27.42v31.07c29.35-5.97 52.52-29.14 58.49-58.49zm-27.42-88.49v31.07c12.77 4.52 22.9 14.65 27.42 27.42h31.07c-5.97-29.35-29.14-52.52-58.49-58.49zm-15 58.49c-8.27 0-15 6.73-15 15s6.73 15 15 15 15-6.73 15-15-6.73-15-15-15zm-42.42 30h-31.07c5.97 29.35 29.14 52.52 58.49 58.49v-31.07c-12.77-4.52-22.9-14.65-27.42-27.42zm-31.07-30h31.07c4.52-12.77 14.65-22.9 27.42-27.42v-31.07c-29.35 5.97-52.52 29.14-58.49 58.49zm73.49 0c-8.27 0-15 6.73-15 15s6.73 15 15 15 15-6.73 15-15-6.73-15-15-15zm0 0c-8.27 0-15 6.73-15 15s6.73 15 15 15 15-6.73 15-15-6.73-15-15-15z"/></svg>