<?xml version="1.0" encoding="utf-8"?>
<!-- Generator: Adobe Illustrator 17.0.0, SVG Export Plug-In . SVG Version: 6.00 Build 0)  -->
<!DOCTYPE svg PUBLIC "-//W3C//DTD SVG 1.1//EN" "http://www.w3.org/Graphics/SVG/1.1/DTD/svg11.dtd">
<svg version="1.1" id="Layer_1" xmlns="http://www.w3.org/2000/svg" xmlns:xlink="http://www.w3.org/1999/xlink" x="0px" y="0px"
	 width="80px" height="80px" viewBox="0 0 80 80" enable-background="new 0 0 80 80" xml:space="preserve">
<circle fill="#FFFFFF" cx="40.114" cy="38.239" r="36.114"/>
<g>
	<g>
		<path fill="#53B84B" d="M39.999,0C17.909,0,0,17.909,0,40c0,22.09,17.908,40,39.999,40s40-17.91,40-40C80,17.909,62.09,0,39.999,0
			z M38.745,26.709h29.831c0.203,0,0.401,0.024,0.593,0.059l-16.706,9.605L38.339,26.75C38.474,26.734,38.606,26.709,38.745,26.709z
			 M16.153,49.416v-4.149h13.312l-0.162,1.346l-0.03,0.248v0.25c0,0.805,0.134,1.579,0.373,2.305H16.153z M29.945,41.292H11.657
			v-4.15h18.791L29.945,41.292z M31.353,29.658l-0.257,2.124H7.623v-4.15h24.103C31.512,28.274,31.381,28.953,31.353,29.658z
			 M66.501,50.361h-29.83c-0.893,0-1.701-0.36-2.288-0.943c0,0,0,0,0-0.001c-0.144-0.143-0.274-0.301-0.389-0.469
			c-0.003-0.004-0.008-0.008-0.01-0.013c-0.107-0.158-0.197-0.329-0.275-0.504c-0.008-0.017-0.019-0.033-0.028-0.05
			c-0.071-0.166-0.12-0.342-0.162-0.522c-0.008-0.031-0.022-0.059-0.028-0.091c-0.043-0.213-0.066-0.432-0.066-0.657l1.105-9.136
			l0.101-0.835l0.869-7.184c0-0.205,0.025-0.404,0.062-0.598c0.004-0.021,0.002-0.043,0.007-0.064
			c0.003,0.001,0.005,0.003,0.008,0.006c0.093-0.443,0.27-0.855,0.522-1.213v1.568l15.398,10.435
			c0.021,0.014,0.043,0.022,0.065,0.035c0.022,0.014,0.045,0.025,0.069,0.037c0.122,0.062,0.246,0.112,0.374,0.145
			c0.014,0.003,0.026,0.006,0.04,0.008c0.14,0.033,0.282,0.053,0.422,0.053h0.001c0.001,0,0.002,0,0.003,0
			c0.141,0,0.282-0.02,0.422-0.053c0.014-0.003,0.026-0.005,0.04-0.008c0.127-0.033,0.252-0.083,0.374-0.145
			c0.023-0.013,0.046-0.023,0.069-0.037c0.021-0.013,0.043-0.02,0.065-0.035L71.781,29.5c0.021,0.151,0.046,0.301,0.046,0.458
			l-2.075,17.155C69.75,48.907,68.295,50.361,66.501,50.361z"/>
	</g>
</g>
</svg>
